<mxfile host="app.diagrams.net" modified="2023-08-21T02:50:50.265Z" agent="Mozilla/5.0 (Macintosh; Intel Mac OS X 10_15_7) AppleWebKit/605.1.15 (KHTML, like Gecko) Version/16.1 Safari/605.1.15" etag="hKXfK4WdY46n6YZbErdB" version="21.6.8" type="github">
  <diagram id="C5RBs43oDa-KdzZeNtuy" name="Page-1">
    <mxGraphModel dx="1194" dy="707" grid="1" gridSize="10" guides="1" tooltips="1" connect="1" arrows="1" fold="1" page="1" pageScale="1" pageWidth="827" pageHeight="1169" math="0" shadow="0">
      <root>
        <mxCell id="WIyWlLk6GJQsqaUBKTNV-0" />
        <mxCell id="WIyWlLk6GJQsqaUBKTNV-1" parent="WIyWlLk6GJQsqaUBKTNV-0" />
        <mxCell id="9dNlffeQQCSy0bq0wJK1-0" style="edgeStyle=orthogonalEdgeStyle;sketch=1;hachureGap=4;jiggle=2;curveFitting=1;orthogonalLoop=1;jettySize=auto;html=1;exitX=1;exitY=0.5;exitDx=0;exitDy=0;exitPerimeter=0;entryX=0;entryY=0.5;entryDx=0;entryDy=0;entryPerimeter=0;fontFamily=Helvetica;fontSource=https%3A%2F%2Ffonts.googleapis.com%2Fcss%3Ffamily%3DArchitects%2BDaughter;fontSize=17;fontColor=#ffffff;" edge="1" parent="WIyWlLk6GJQsqaUBKTNV-1" source="9dNlffeQQCSy0bq0wJK1-2" target="9dNlffeQQCSy0bq0wJK1-3">
          <mxGeometry relative="1" as="geometry" />
        </mxCell>
        <mxCell id="9dNlffeQQCSy0bq0wJK1-1" style="edgeStyle=orthogonalEdgeStyle;sketch=1;hachureGap=4;jiggle=2;curveFitting=1;orthogonalLoop=1;jettySize=auto;html=1;entryX=0;entryY=0.5;entryDx=0;entryDy=0;entryPerimeter=0;fontFamily=Helvetica;fontSource=https%3A%2F%2Ffonts.googleapis.com%2Fcss%3Ffamily%3DArchitects%2BDaughter;fontSize=17;fontColor=#ffffff;" edge="1" parent="WIyWlLk6GJQsqaUBKTNV-1" source="9dNlffeQQCSy0bq0wJK1-2" target="9dNlffeQQCSy0bq0wJK1-8">
          <mxGeometry relative="1" as="geometry" />
        </mxCell>
        <mxCell id="9dNlffeQQCSy0bq0wJK1-2" value="queue" style="strokeWidth=2;html=1;shape=mxgraph.flowchart.direct_data;whiteSpace=wrap;fillColor=#1ba1e2;fontColor=#ffffff;strokeColor=#006EAF;fontSize=17;rounded=0;" vertex="1" parent="WIyWlLk6GJQsqaUBKTNV-1">
          <mxGeometry x="450" y="95" width="100" height="60" as="geometry" />
        </mxCell>
        <mxCell id="9dNlffeQQCSy0bq0wJK1-3" value="Consumer A" style="strokeWidth=2;html=1;shape=mxgraph.flowchart.start_1;whiteSpace=wrap;fillColor=#0050ef;strokeColor=default;fontColor=#ffffff;fontSize=17;rounded=0;" vertex="1" parent="WIyWlLk6GJQsqaUBKTNV-1">
          <mxGeometry x="630" y="30" width="130" height="70" as="geometry" />
        </mxCell>
        <mxCell id="9dNlffeQQCSy0bq0wJK1-4" style="edgeStyle=orthogonalEdgeStyle;sketch=1;hachureGap=4;jiggle=2;curveFitting=1;orthogonalLoop=1;jettySize=auto;html=1;exitX=1;exitY=0.5;exitDx=0;exitDy=0;exitPerimeter=0;entryX=0;entryY=0.5;entryDx=0;entryDy=0;entryPerimeter=0;fontFamily=Helvetica;fontSource=https%3A%2F%2Ffonts.googleapis.com%2Fcss%3Ffamily%3DArchitects%2BDaughter;fontSize=17;fontColor=#ffffff;" edge="1" parent="WIyWlLk6GJQsqaUBKTNV-1" source="9dNlffeQQCSy0bq0wJK1-5" target="9dNlffeQQCSy0bq0wJK1-7">
          <mxGeometry relative="1" as="geometry" />
        </mxCell>
        <mxCell id="9dNlffeQQCSy0bq0wJK1-5" value="Producer" style="strokeWidth=2;html=1;shape=mxgraph.flowchart.start_1;whiteSpace=wrap;fillColor=#0050ef;strokeColor=default;fontColor=#ffffff;fontSize=17;rounded=0;" vertex="1" parent="WIyWlLk6GJQsqaUBKTNV-1">
          <mxGeometry x="40" y="90" width="130" height="70" as="geometry" />
        </mxCell>
        <mxCell id="9dNlffeQQCSy0bq0wJK1-6" style="edgeStyle=orthogonalEdgeStyle;sketch=1;hachureGap=4;jiggle=2;curveFitting=1;orthogonalLoop=1;jettySize=auto;html=1;exitX=1;exitY=0.5;exitDx=0;exitDy=0;exitPerimeter=0;entryX=0;entryY=0.5;entryDx=0;entryDy=0;entryPerimeter=0;fontFamily=Helvetica;fontSource=https%3A%2F%2Ffonts.googleapis.com%2Fcss%3Ffamily%3DArchitects%2BDaughter;fontSize=17;fontColor=#ffffff;" edge="1" parent="WIyWlLk6GJQsqaUBKTNV-1" source="9dNlffeQQCSy0bq0wJK1-7" target="9dNlffeQQCSy0bq0wJK1-2">
          <mxGeometry relative="1" as="geometry" />
        </mxCell>
        <mxCell id="9dNlffeQQCSy0bq0wJK1-7" value="Exchange" style="strokeWidth=2;html=1;shape=mxgraph.flowchart.decision;whiteSpace=wrap;fillColor=#a0522d;strokeColor=#6D1F00;fontColor=#ffffff;fontSize=16;rounded=0;" vertex="1" parent="WIyWlLk6GJQsqaUBKTNV-1">
          <mxGeometry x="249" y="75" width="100" height="100" as="geometry" />
        </mxCell>
        <mxCell id="9dNlffeQQCSy0bq0wJK1-8" value="Consumer B" style="strokeWidth=2;html=1;shape=mxgraph.flowchart.start_1;whiteSpace=wrap;fillColor=#0050ef;strokeColor=default;fontColor=#ffffff;fontSize=17;rounded=0;" vertex="1" parent="WIyWlLk6GJQsqaUBKTNV-1">
          <mxGeometry x="630" y="140" width="130" height="70" as="geometry" />
        </mxCell>
      </root>
    </mxGraphModel>
  </diagram>
</mxfile>
